<svg width="40" height="40" viewBox="0 0 40 40"  xmlns="http://www.w3.org/2000/svg">
<g clip-path="url(#clip0_144_887)">
<path d="M20 0C16.0444 0 12.1776 1.17298 8.8886 3.37061C5.59962 5.56824 3.03617 8.69181 1.52242 12.3463C0.00866572 16.0009 -0.387401 20.0222 0.384303 23.9018C1.15601 27.7814 3.06082 31.3451 5.85787 34.1421C8.65492 36.9392 12.2186 38.844 16.0982 39.6157C19.9778 40.3874 23.9992 39.9913 27.6537 38.4776C31.3082 36.9638 34.4318 34.4004 36.6294 31.1114C38.827 27.8224 40 23.9556 40 20C39.9943 14.6974 37.8853 9.61368 34.1358 5.8642C30.3863 2.11471 25.3026 0.00573514 20 0V0ZM20 36.6667C16.7037 36.6667 13.4813 35.6892 10.7405 33.8578C7.99969 32.0265 5.86348 29.4235 4.60202 26.3781C3.34056 23.3326 3.0105 19.9815 3.65359 16.7485C4.29667 13.5155 5.88402 10.5458 8.2149 8.21489C10.5458 5.88401 13.5155 4.29667 16.7485 3.65358C19.9815 3.01049 23.3326 3.34055 26.3781 4.60201C29.4235 5.86347 32.0265 7.99968 33.8578 10.7405C35.6892 13.4813 36.6667 16.7036 36.6667 20C36.6618 24.4188 34.9043 28.6552 31.7798 31.7798C28.6552 34.9043 24.4188 36.6618 20 36.6667V36.6667ZM28.3333 20C28.3333 20.442 28.1577 20.866 27.8452 21.1785C27.5326 21.4911 27.1087 21.6667 26.6667 21.6667H21.6667V26.6667C21.6667 27.1087 21.4911 27.5326 21.1785 27.8452C20.866 28.1577 20.442 28.3333 20 28.3333C19.558 28.3333 19.1341 28.1577 18.8215 27.8452C18.5089 27.5326 18.3333 27.1087 18.3333 26.6667V21.6667H13.3333C12.8913 21.6667 12.4674 21.4911 12.1548 21.1785C11.8423 20.866 11.6667 20.442 11.6667 20C11.6667 19.558 11.8423 19.1341 12.1548 18.8215C12.4674 18.5089 12.8913 18.3333 13.3333 18.3333H18.3333V13.3333C18.3333 12.8913 18.5089 12.4674 18.8215 12.1548C19.1341 11.8423 19.558 11.6667 20 11.6667C20.442 11.6667 20.866 11.8423 21.1785 12.1548C21.4911 12.4674 21.6667 12.8913 21.6667 13.3333V18.3333H26.6667C27.1087 18.3333 27.5326 18.5089 27.8452 18.8215C28.1577 19.1341 28.3333 19.558 28.3333 20Z" />
</g>
</svg>
