<svg width="40" height="40" viewBox="0 0 40 40"  xmlns="http://www.w3.org/2000/svg">
<path d="M31.6667 18.3333H15L20.4833 12.85C20.6395 12.695 20.7635 12.5107 20.8482 12.3076C20.9328 12.1045 20.9763 11.8867 20.9763 11.6666C20.9763 11.4466 20.9328 11.2288 20.8482 11.0257C20.7635 10.8226 20.6395 10.6382 20.4833 10.4833C20.1711 10.1729 19.7486 9.99866 19.3083 9.99866C18.868 9.99866 18.4456 10.1729 18.1333 10.4833L10.9833 17.65C10.3574 18.2722 10.0037 19.1174 10 20V20C10.0081 20.8768 10.3614 21.7151 10.9833 22.3333L18.1333 29.5C18.2887 29.6543 18.473 29.7765 18.6756 29.8596C18.8782 29.9426 19.0952 29.985 19.3142 29.9842C19.5332 29.9835 19.7499 29.9396 19.9519 29.855C20.154 29.7705 20.3374 29.647 20.4917 29.4916C20.646 29.3362 20.7682 29.152 20.8512 28.9494C20.9343 28.7467 20.9767 28.5297 20.9759 28.3108C20.9752 28.0918 20.9313 27.8751 20.8467 27.673C20.7622 27.471 20.6387 27.2876 20.4833 27.1333L15 21.6666H31.6667C32.1087 21.6666 32.5326 21.4911 32.8452 21.1785C33.1577 20.8659 33.3333 20.442 33.3333 20C33.3333 19.558 33.1577 19.134 32.8452 18.8215C32.5326 18.5089 32.1087 18.3333 31.6667 18.3333Z" />
</svg>
