<svg viewBox="0 0 20 20" xmlns="http://www.w3.org/2000/svg">
<g clip-path="url(#clip0_183_892)">
<path d="M9.16667 10C9.38768 10 9.59964 10.0878 9.75592 10.2441C9.9122 10.4004 10 10.6123 10 10.8333C10 11.0543 9.9122 11.2663 9.75592 11.4226C9.59964 11.5789 9.38768 11.6667 9.16667 11.6667H6.66667C6.44565 11.6667 6.23369 11.5789 6.07741 11.4226C5.92113 11.2663 5.83333 11.0543 5.83333 10.8333C5.83333 10.6123 5.92113 10.4004 6.07741 10.2441C6.23369 10.0878 6.44565 10 6.66667 10H9.16667ZM14.1667 7.5C14.1667 7.27899 14.0789 7.06702 13.9226 6.91074C13.7663 6.75446 13.5543 6.66667 13.3333 6.66667H6.66667C6.44565 6.66667 6.23369 6.75446 6.07741 6.91074C5.92113 7.06702 5.83333 7.27899 5.83333 7.5C5.83333 7.72101 5.92113 7.93297 6.07741 8.08926C6.23369 8.24554 6.44565 8.33333 6.66667 8.33333H13.3333C13.5543 8.33333 13.7663 8.24554 13.9226 8.08926C14.0789 7.93297 14.1667 7.72101 14.1667 7.5ZM6.66667 5H13.3333C13.5543 5 13.7663 4.9122 13.9226 4.75592C14.0789 4.59964 14.1667 4.38768 14.1667 4.16667C14.1667 3.94565 14.0789 3.73369 13.9226 3.57741C13.7663 3.42113 13.5543 3.33333 13.3333 3.33333H6.66667C6.44565 3.33333 6.23369 3.42113 6.07741 3.57741C5.92113 3.73369 5.83333 3.94565 5.83333 4.16667C5.83333 4.38768 5.92113 4.59964 6.07741 4.75592C6.23369 4.9122 6.44565 5 6.66667 5ZM16.6667 16.2033V19.3975C16.6667 19.5164 16.6315 19.6326 16.5655 19.7315C16.4995 19.8303 16.4056 19.9074 16.2958 19.9529C16.186 19.9984 16.0651 20.0103 15.9485 19.9871C15.8319 19.9639 15.7249 19.9066 15.6408 19.8225L15 19.1825L14.3592 19.8225C14.2751 19.9066 14.1681 19.9639 14.0515 19.9871C13.9349 20.0103 13.814 19.9984 13.7042 19.9529C13.5944 19.9074 13.5005 19.8303 13.4345 19.7315C13.3685 19.6326 13.3333 19.5164 13.3333 19.3975V16.2033C12.6978 15.8382 12.2008 15.2731 11.9199 14.5961C11.6389 13.9192 11.5896 13.1683 11.7798 12.4604C11.97 11.7525 12.3889 11.1274 12.9714 10.6824C13.5538 10.2374 14.267 9.99747 15 10C15.2817 10.0035 15.5618 10.0433 15.8333 10.1183V4.16667C15.8333 3.50363 15.5699 2.86774 15.1011 2.3989C14.6323 1.93006 13.9964 1.66667 13.3333 1.66667H6.66667C6.00363 1.66667 5.36774 1.93006 4.8989 2.3989C4.43006 2.86774 4.16667 3.50363 4.16667 4.16667V14.1667C4.16667 14.8297 4.43006 15.4656 4.8989 15.9344C5.36774 16.4033 6.00363 16.6667 6.66667 16.6667H10.8333C11.0543 16.6667 11.2663 16.7545 11.4226 16.9107C11.5789 17.067 11.6667 17.279 11.6667 17.5C11.6667 17.721 11.5789 17.933 11.4226 18.0893C11.2663 18.2455 11.0543 18.3333 10.8333 18.3333H6.66667C5.562 18.332 4.50296 17.8926 3.72185 17.1115C2.94073 16.3304 2.50132 15.2713 2.5 14.1667V4.16667C2.50132 3.062 2.94073 2.00296 3.72185 1.22185C4.50296 0.440735 5.562 0.00132321 6.66667 0L13.3333 0C14.438 0.00132321 15.497 0.440735 16.2782 1.22185C17.0593 2.00296 17.4987 3.062 17.5 4.16667V11.1517C17.8264 11.5182 18.0667 11.9532 18.2033 12.4247C18.34 12.8961 18.3694 13.3922 18.2895 13.8765C18.2096 14.3608 18.0224 14.8211 17.7416 15.2237C17.4608 15.6263 17.0935 15.961 16.6667 16.2033V16.2033ZM16.6667 13.3333C16.6667 13.0037 16.5689 12.6815 16.3858 12.4074C16.2026 12.1333 15.9424 11.9197 15.6378 11.7935C15.3333 11.6674 14.9982 11.6344 14.6749 11.6987C14.3515 11.763 14.0546 11.9217 13.8215 12.1548C13.5884 12.3879 13.4297 12.6849 13.3654 13.0082C13.301 13.3315 13.3341 13.6666 13.4602 13.9711C13.5863 14.2757 13.8 14.536 14.074 14.7191C14.3481 14.9023 14.6704 15 15 15C15.442 15 15.866 14.8244 16.1785 14.5118C16.4911 14.1993 16.6667 13.7754 16.6667 13.3333Z" fill="white"/>
</g>
<defs>
<clipPath id="clip0_183_892">
<rect width="20" height="20" fill="white"/>
</clipPath>
</defs>
</svg>
