<svg viewBox="0 0 40 40"  xmlns="http://www.w3.org/2000/svg">
<path d="M29.9999 9.99994C29.6874 9.68749 29.2635 9.51196 28.8216 9.51196C28.3797 9.51196 27.9558 9.68749 27.6433 9.99994L19.9999 17.6433L12.3566 9.99994C12.0441 9.68749 11.6202 9.51196 11.1783 9.51196C10.7363 9.51196 10.3125 9.68749 9.99994 9.99994C9.68749 10.3125 9.51196 10.7363 9.51196 11.1783C9.51196 11.6202 9.68749 12.0441 9.99994 12.3566L17.6433 19.9999L9.99994 27.6433C9.68749 27.9558 9.51196 28.3797 9.51196 28.8216C9.51196 29.2635 9.68749 29.6874 9.99994 29.9999C10.3125 30.3124 10.7363 30.4879 11.1783 30.4879C11.6202 30.4879 12.0441 30.3124 12.3566 29.9999L19.9999 22.3566L27.6433 29.9999C27.9558 30.3124 28.3797 30.4879 28.8216 30.4879C29.2635 30.4879 29.6874 30.3124 29.9999 29.9999C30.3124 29.6874 30.4879 29.2635 30.4879 28.8216C30.4879 28.3797 30.3124 27.9558 29.9999 27.6433L22.3566 19.9999L29.9999 12.3566C30.3124 12.0441 30.4879 11.6202 30.4879 11.1783C30.4879 10.7363 30.3124 10.3125 29.9999 9.99994V9.99994Z" />
</svg>
