<svg viewBox="0 0 27 20" xmlns="http://www.w3.org/2000/svg">
<path d="M22.0837 1.65789C20.421 0.890533 18.638 0.325167 16.7737 0.00135746C16.7399 -0.00488967 16.7059 0.0107282 16.6884 0.0419639C16.4592 0.452192 16.2051 0.987363 16.0273 1.408C14.0221 1.10606 12.0274 1.10606 10.0634 1.408C9.88549 0.977992 9.62226 0.452192 9.39193 0.0419639C9.37444 0.0117693 9.34052 -0.00384848 9.30658 0.00135746C7.44338 0.324126 5.66039 0.889492 3.99666 1.65789C3.98227 1.66413 3.96994 1.67455 3.96171 1.68808C0.579774 6.77013 -0.346685 11.7273 0.107804 16.6229C0.109861 16.6469 0.123229 16.6697 0.141738 16.6843C2.37305 18.3325 4.53445 19.3331 6.65574 19.9964C6.68967 20.0068 6.72566 19.9942 6.74726 19.9661C7.24904 19.2769 7.69633 18.5501 8.07987 17.7859C8.1025 17.7411 8.0809 17.688 8.03463 17.6703C7.32513 17.3996 6.64956 17.0695 5.99971 16.6948C5.94829 16.6645 5.94418 16.5907 5.99148 16.5552C6.12824 16.4521 6.265 16.3449 6.39558 16.2366C6.41924 16.2168 6.45214 16.2127 6.4799 16.2251C10.7492 18.1857 15.3713 18.1857 19.5901 16.2251C19.6179 16.2116 19.6509 16.2158 19.6755 16.2356C19.8061 16.3439 19.9429 16.4521 20.0806 16.5552C20.128 16.5907 20.1249 16.6645 20.0734 16.6948C19.4236 17.0768 18.748 17.3996 18.0375 17.6693C17.9913 17.687 17.9707 17.7411 17.9933 17.7859C18.385 18.5491 18.8323 19.2759 19.3249 19.9651C19.3454 19.9942 19.3824 20.0068 19.4164 19.9964C21.548 19.3331 23.7093 18.3325 25.9407 16.6843C25.9602 16.6697 25.9726 16.6479 25.9746 16.6239C26.5185 10.964 25.0636 6.04754 22.1176 1.68913C22.1104 1.67455 22.098 1.66413 22.0837 1.65789ZM8.71739 13.6419C7.43207 13.6419 6.37297 12.455 6.37297 10.9973C6.37297 9.53968 7.4115 8.35273 8.71739 8.35273C10.0336 8.35273 11.0823 9.55009 11.0618 10.9973C11.0618 12.455 10.0233 13.6419 8.71739 13.6419ZM17.3856 13.6419C16.1003 13.6419 15.0411 12.455 15.0411 10.9973C15.0411 9.53968 16.0797 8.35273 17.3856 8.35273C18.7017 8.35273 19.7505 9.55009 19.73 10.9973C19.73 12.455 18.7017 13.6419 17.3856 13.6419Z" fill="black"/>
</svg>
