<svg width="40" height="40" viewBox="0 0 40 40"  xmlns="http://www.w3.org/2000/svg">
<g clip-path="url(#clip0_42_236)">
<path d="M20 0C16.0444 0 12.1776 1.17298 8.8886 3.37061C5.59962 5.56824 3.03617 8.69181 1.52242 12.3463C0.00866572 16.0009 -0.387401 20.0222 0.384303 23.9018C1.15601 27.7814 3.06082 31.3451 5.85787 34.1421C8.65492 36.9392 12.2186 38.844 16.0982 39.6157C19.9778 40.3874 23.9992 39.9913 27.6537 38.4776C31.3082 36.9638 34.4318 34.4004 36.6294 31.1114C38.827 27.8224 40 23.9556 40 20C39.9943 14.6974 37.8853 9.61368 34.1358 5.8642C30.3863 2.11471 25.3026 0.00573514 20 0V0ZM20 36.6667C16.7037 36.6667 13.4813 35.6892 10.7405 33.8578C7.99969 32.0265 5.86348 29.4235 4.60202 26.3781C3.34056 23.3326 3.0105 19.9815 3.65359 16.7485C4.29667 13.5155 5.88402 10.5458 8.2149 8.21489C10.5458 5.88401 13.5155 4.29667 16.7485 3.65358C19.9815 3.01049 23.3326 3.34055 26.3781 4.60201C29.4235 5.86347 32.0265 7.99968 33.8578 10.7405C35.6892 13.4813 36.6667 16.7036 36.6667 20C36.6618 24.4188 34.9043 28.6552 31.7798 31.7798C28.6552 34.9043 24.4188 36.6618 20 36.6667V36.6667Z" />
<path d="M19.9999 8.33337C19.5579 8.33337 19.134 8.50897 18.8214 8.82153C18.5088 9.13409 18.3333 9.55801 18.3333 10V23.3334C18.3333 23.7754 18.5088 24.1993 18.8214 24.5119C19.134 24.8244 19.5579 25 19.9999 25C20.4419 25 20.8659 24.8244 21.1784 24.5119C21.491 24.1993 21.6666 23.7754 21.6666 23.3334V10C21.6666 9.55801 21.491 9.13409 21.1784 8.82153C20.8659 8.50897 20.4419 8.33337 19.9999 8.33337Z" />
<path d="M21.6666 30C21.6666 29.0796 20.9204 28.3334 19.9999 28.3334C19.0794 28.3334 18.3333 29.0796 18.3333 30C18.3333 30.9205 19.0794 31.6667 19.9999 31.6667C20.9204 31.6667 21.6666 30.9205 21.6666 30Z" />
</g>
</svg>
