<svg width="40" height="40" viewBox="0 0 40 40" xmlns="http://www.w3.org/2000/svg">
<g clip-path="url(#clip0_50_237)">
<path d="M29.1667 3.19495C27.2899 3.22414 25.4541 3.74803 23.8446 4.71373C22.2351 5.67943 20.9089 7.05273 20 8.69495C19.0911 7.05273 17.7649 5.67943 16.1554 4.71373C14.5459 3.74803 12.7101 3.22414 10.8333 3.19495C7.84158 3.32493 5.02286 4.6337 2.99298 6.83533C0.963111 9.03696 -0.112906 11.9525 1.18645e-05 14.9449C1.18645e-05 22.5233 7.97668 30.7999 14.6667 36.4116C16.1604 37.6668 18.0489 38.355 20 38.355C21.9511 38.355 23.8396 37.6668 25.3333 36.4116C32.0233 30.7999 40 22.5233 40 14.9449C40.1129 11.9525 39.0369 9.03696 37.007 6.83533C34.9772 4.6337 32.1584 3.32493 29.1667 3.19495ZM23.1917 33.8616C22.2983 34.6139 21.1679 35.0265 20 35.0265C18.8321 35.0265 17.7017 34.6139 16.8083 33.8616C8.24501 26.6766 3.33335 19.7833 3.33335 14.9449C3.21941 12.8361 3.94396 10.7678 5.34895 9.19111C6.75395 7.6144 8.7254 6.6572 10.8333 6.52828C12.9413 6.6572 14.9127 7.6144 16.3177 9.19111C17.7227 10.7678 18.4473 12.8361 18.3333 14.9449C18.3333 15.387 18.5089 15.8109 18.8215 16.1235C19.1341 16.436 19.558 16.6116 20 16.6116C20.442 16.6116 20.866 16.436 21.1785 16.1235C21.4911 15.8109 21.6667 15.387 21.6667 14.9449C21.5527 12.8361 22.2773 10.7678 23.6823 9.19111C25.0873 7.6144 27.0587 6.6572 29.1667 6.52828C31.2746 6.6572 33.2461 7.6144 34.6511 9.19111C36.0561 10.7678 36.7806 12.8361 36.6667 14.9449C36.6667 19.7833 31.755 26.6766 23.1917 33.8549V33.8616Z" />
</g>
</svg>
