<svg width="40" height="40" viewBox="0 0 40 40" xmlns="http://www.w3.org/2000/svg">
<g clip-path="url(#clip0_42_219)">
<path d="M20 0C16.0444 0 12.1776 1.17298 8.8886 3.37061C5.59962 5.56824 3.03617 8.69181 1.52242 12.3463C0.00866572 16.0009 -0.387401 20.0222 0.384303 23.9018C1.15601 27.7814 3.06082 31.3451 5.85787 34.1421C8.65492 36.9392 12.2186 38.844 16.0982 39.6157C19.9778 40.3874 23.9992 39.9913 27.6537 38.4776C31.3082 36.9638 34.4318 34.4004 36.6294 31.1114C38.827 27.8224 40 23.9556 40 20C39.9943 14.6974 37.8853 9.61368 34.1358 5.8642C30.3863 2.11471 25.3026 0.00573514 20 0V0ZM20 36.6667C16.7037 36.6667 13.4813 35.6892 10.7405 33.8578C7.99969 32.0265 5.86348 29.4235 4.60202 26.3781C3.34056 23.3326 3.0105 19.9815 3.65359 16.7485C4.29667 13.5155 5.88402 10.5458 8.2149 8.21489C10.5458 5.88401 13.5155 4.29667 16.7485 3.65358C19.9815 3.01049 23.3326 3.34055 26.3781 4.60201C29.4235 5.86347 32.0265 7.99968 33.8578 10.7405C35.6892 13.4813 36.6667 16.7036 36.6667 20C36.6618 24.4188 34.9043 28.6552 31.7798 31.7798C28.6552 34.9043 24.4188 36.6618 20 36.6667V36.6667Z" />
<path d="M20.0001 16.6666H18.3334C17.8914 16.6666 17.4675 16.8422 17.1549 17.1548C16.8423 17.4673 16.6667 17.8913 16.6667 18.3333C16.6667 18.7753 16.8423 19.1992 17.1549 19.5118C17.4675 19.8244 17.8914 20 18.3334 20H20.0001V30C20.0001 30.442 20.1757 30.8659 20.4882 31.1785C20.8008 31.491 21.2247 31.6666 21.6667 31.6666C22.1088 31.6666 22.5327 31.491 22.8453 31.1785C23.1578 30.8659 23.3334 30.442 23.3334 30V20C23.3334 19.1159 22.9822 18.2681 22.3571 17.6429C21.732 17.0178 20.8841 16.6666 20.0001 16.6666Z" />
<path d="M20 13.3334C21.3807 13.3334 22.5 12.2141 22.5 10.8334C22.5 9.45266 21.3807 8.33337 20 8.33337C18.6193 8.33337 17.5 9.45266 17.5 10.8334C17.5 12.2141 18.6193 13.3334 20 13.3334Z"/>
</g>
</svg>
