<svg width="40" height="40" viewBox="0 0 40 40" xmlns="http://www.w3.org/2000/svg">
<g clip-path="url(#clip0_42_216)">
<path d="M31.6666 14.04V11.6667C31.6666 8.57247 30.4374 5.60501 28.2495 3.41709C26.0616 1.22916 23.0941 0 19.9999 0C16.9057 0 13.9383 1.22916 11.7503 3.41709C9.56242 5.60501 8.33325 8.57247 8.33325 11.6667V14.04C6.84885 14.6878 5.58541 15.7542 4.69742 17.1087C3.80943 18.4632 3.33538 20.0471 3.33325 21.6667V31.6667C3.3359 33.876 4.21472 35.9941 5.77695 37.5563C7.33918 39.1185 9.45726 39.9974 11.6666 40H28.3333C30.5426 39.9974 32.6607 39.1185 34.2229 37.5563C35.7851 35.9941 36.6639 33.876 36.6666 31.6667V21.6667C36.6645 20.0471 36.1904 18.4632 35.3024 17.1087C34.4144 15.7542 33.151 14.6878 31.6666 14.04V14.04ZM11.6666 11.6667C11.6666 9.45653 12.5446 7.33691 14.1074 5.77411C15.6702 4.21131 17.7898 3.33333 19.9999 3.33333C22.2101 3.33333 24.3297 4.21131 25.8925 5.77411C27.4553 7.33691 28.3333 9.45653 28.3333 11.6667V13.3333H11.6666V11.6667ZM33.3333 31.6667C33.3333 32.9927 32.8065 34.2645 31.8688 35.2022C30.9311 36.1399 29.6593 36.6667 28.3333 36.6667H11.6666C10.3405 36.6667 9.06873 36.1399 8.13105 35.2022C7.19337 34.2645 6.66659 32.9927 6.66659 31.6667V21.6667C6.66659 20.3406 7.19337 19.0688 8.13105 18.1311C9.06873 17.1934 10.3405 16.6667 11.6666 16.6667H28.3333C29.6593 16.6667 30.9311 17.1934 31.8688 18.1311C32.8065 19.0688 33.3333 20.3406 33.3333 21.6667V31.6667Z"/>
<path d="M19.9999 23.3334C19.5579 23.3334 19.134 23.509 18.8214 23.8215C18.5088 24.1341 18.3333 24.558 18.3333 25V28.3334C18.3333 28.7754 18.5088 29.1993 18.8214 29.5119C19.134 29.8244 19.5579 30 19.9999 30C20.4419 30 20.8659 29.8244 21.1784 29.5119C21.491 29.1993 21.6666 28.7754 21.6666 28.3334V25C21.6666 24.558 21.491 24.1341 21.1784 23.8215C20.8659 23.509 20.4419 23.3334 19.9999 23.3334Z"/>
</g>
</svg>
