<svg width="137" height="28" viewBox="0 0 137 28" fill="none" xmlns="http://www.w3.org/2000/svg">
<path d="M14 10.64C13.36 9.63998 11.72 8.71999 9.55998 8.71999C3.99998 8.71999 0.039978 13.88 0.039978 19.64C0.039978 24 2.27998 27.4 6.71998 27.4C8.67998 27.4 10.44 26.44 11.44 25.32L11.12 27H16.08L20.64 0.999984H15.68L14 10.64ZM12.24 20.76C11.4 22 10.12 23.08 8.31998 23.08C6.19998 23.08 5.03998 21.48 5.03998 19.36C5.03998 16.12 6.99998 13.04 10.04 13.04C11.68 13.04 12.84 13.92 13.24 15.12L12.24 20.76Z" fill="white"/>
<path d="M28.6584 9.11998H23.6984L20.5384 27H25.4984L28.6584 9.11998ZM30.0184 3.91998C30.0184 2.31998 28.6984 1.11998 27.1384 1.11998C25.5384 1.11998 24.1384 2.31998 24.1384 4.03999C24.1384 5.63999 25.4584 6.79998 27.0584 6.79998C28.6184 6.79998 30.0184 5.63998 30.0184 3.91998Z" fill="white"/>
<path d="M44.8753 1.11998C44.1953 0.799984 43.2753 0.639984 42.1953 0.639984C38.3553 0.639984 35.4753 2.83998 34.7553 6.99999L34.3953 9.11998H31.4753L30.7553 13.12H33.6753L31.2353 27H36.1553L38.5553 13.12H42.2753L42.9953 9.11998H39.2753L39.5953 7.31999C39.8753 5.67998 40.9553 4.83999 42.5553 4.83999C43.1553 4.83999 43.7153 4.99999 44.1553 5.27998L44.8753 1.11998Z" fill="white"/>
<path d="M56.3222 1.11998C55.6422 0.799984 54.7222 0.639984 53.6422 0.639984C49.8022 0.639984 46.9222 2.83998 46.2022 6.99999L45.8422 9.11998H42.9222L42.2022 13.12H45.1222L42.6822 27H47.6022L50.0022 13.12H53.7222L54.4422 9.11998H50.7222L51.0422 7.31999C51.3222 5.67998 52.4022 4.83999 54.0022 4.83999C54.6022 4.83999 55.1622 4.99999 55.6022 5.27998L56.3222 1.11998Z" fill="white"/>
<path d="M73.169 9.11998H68.209L66.209 20.52C65.569 22 64.049 23.12 62.489 23.12C60.809 23.12 60.169 22.24 60.169 20.92C60.169 20.56 60.209 20.24 60.289 19.88L62.129 9.11998H57.169L55.129 20.72C55.049 21.24 55.009 21.72 55.009 22.16C55.009 25.24 56.889 27.4 60.289 27.4C62.529 27.4 64.289 26.44 65.369 25.36L65.089 27H70.049L73.169 9.11998Z" fill="white"/>
<path d="M74.0481 25.4C75.7281 26.76 78.1281 27.4 80.6081 27.4C84.8081 27.4 88.3681 25.08 88.3681 21C88.3681 18.8 86.9681 17.48 84.5681 16.64L82.3681 15.92C81.3281 15.56 80.6881 15.12 80.6881 14.36C80.6881 13.12 81.9681 12.64 83.4081 12.64C85.4081 12.64 87.1681 13.6 88.4481 14.84L89.2481 10.52C87.8081 9.39998 85.8081 8.71999 83.4081 8.71999C79.1681 8.71999 75.8081 11.12 75.8081 15.12C75.8081 17.56 77.4881 18.84 79.9281 19.64L81.6481 20.2C82.6881 20.52 83.4081 20.96 83.4081 21.76C83.4081 23.04 82.1281 23.48 80.6881 23.48C78.6481 23.48 76.2881 22.44 74.8481 20.84L74.0481 25.4Z" fill="white"/>
<path d="M107.374 19.2C107.614 18 107.774 16.88 107.774 15.84C107.774 11.48 105.414 8.71999 101.054 8.71999C94.9344 8.71999 91.1744 13.84 91.1744 19.44C91.1744 24.24 94.2544 27.4 99.4544 27.4C101.574 27.4 103.654 27.04 105.294 26L106.134 21.68C104.294 22.88 102.534 23.36 100.574 23.36C97.8944 23.36 95.9344 22.08 95.9344 19.24V19.2H107.374ZM100.814 12.68C102.454 12.68 103.334 13.84 103.334 15.36C103.334 15.48 103.294 15.76 103.254 15.96H96.5344C97.2944 14.08 98.7344 12.68 100.814 12.68Z" fill="white"/>
<path d="M123.689 10.64C123.049 9.63998 121.409 8.71999 119.249 8.71999C113.689 8.71999 109.729 13.88 109.729 19.64C109.729 24 111.969 27.4 116.409 27.4C118.369 27.4 120.129 26.44 121.129 25.32L120.809 27H125.769L130.329 0.999984H125.369L123.689 10.64ZM121.929 20.76C121.089 22 119.809 23.08 118.009 23.08C115.889 23.08 114.729 21.48 114.729 19.36C114.729 16.12 116.689 13.04 119.729 13.04C121.369 13.04 122.529 13.92 122.929 15.12L121.929 20.76Z" fill="white"/>
<path d="M129.747 24.08C129.747 25.88 131.107 27.28 132.867 27.28C134.627 27.28 136.027 25.88 136.027 24.08C136.027 22.28 134.627 20.92 132.867 20.92C131.107 20.92 129.747 22.28 129.747 24.08Z" fill="#FFC700"/>
</svg>
