<svg width="40" height="40" viewBox="0 0 40 40" xmlns="http://www.w3.org/2000/svg">
<g clip-path="url(#clip0_42_228)">
<path d="M25 39.9999C22.1992 39.9978 19.4299 39.4085 16.8709 38.2699C14.312 37.1314 12.0201 35.469 10.1433 33.3899C8.2524 31.3085 6.8257 28.8487 5.95792 26.1738C5.09014 23.4989 4.80111 20.6701 5.11001 17.8749C5.60802 13.525 7.50567 9.45449 10.5173 6.27636C13.5289 3.09823 17.4914 0.984451 21.8083 0.253275C24.5991 -0.177767 27.447 -0.0617225 30.1933 0.594941C30.9125 0.779706 31.5692 1.15328 32.0955 1.67701C32.6218 2.20074 32.9986 2.85559 33.1869 3.57381C33.3752 4.29203 33.3682 5.04753 33.1666 5.76212C32.9649 6.47671 32.576 7.12444 32.04 7.63828C24.44 14.5816 25.1 25.3783 33.385 31.6549C33.9708 32.1147 34.4227 32.7231 34.6936 33.4167C34.9645 34.1104 35.0446 34.864 34.9255 35.5991C34.8064 36.3342 34.4924 37.0239 34.0163 37.5965C33.5402 38.1691 32.9194 38.6037 32.2183 38.8549C29.888 39.6163 27.4516 40.0028 25 39.9999V39.9999ZM25.1267 3.33327C24.1909 3.33102 23.2564 3.4018 22.3317 3.54494C18.7375 4.1528 15.4381 5.91168 12.93 8.55683C10.422 11.202 8.84095 14.5902 8.42501 18.2116C8.16502 20.545 8.40462 22.907 9.12791 25.1407C9.8512 27.3744 11.0416 29.4285 12.62 31.1666C14.9306 33.6327 17.9072 35.3753 21.1886 36.183C24.4701 36.9906 27.9155 36.8286 31.1067 35.7166C31.2442 35.6651 31.3657 35.5781 31.4589 35.4645C31.552 35.3509 31.6134 35.2147 31.6369 35.0697C31.6604 34.9247 31.6452 34.776 31.5928 34.6388C31.5403 34.5016 31.4526 34.3806 31.3383 34.2883C21.4567 26.8249 20.6717 13.4783 29.7583 5.20661C29.8626 5.1098 29.9378 4.98582 29.9755 4.84862C30.0132 4.71142 30.0119 4.56643 29.9717 4.42994C29.937 4.28508 29.8635 4.15245 29.7589 4.0464C29.6543 3.94035 29.5227 3.86492 29.3783 3.82827C27.9863 3.49249 26.5587 3.32628 25.1267 3.33327V3.33327Z"/>
</g>
</svg>
