<svg viewBox="0 0 40 40" xmlns="http://www.w3.org/2000/svg">
<g clip-path="url(#clip0_144_886)">
<path d="M31.6667 0H8.33333C6.12401 0.00264643 4.00593 0.88147 2.4437 2.4437C0.88147 4.00593 0.00264643 6.12401 0 8.33333L0 31.6667C0.00264643 33.876 0.88147 35.9941 2.4437 37.5563C4.00593 39.1185 6.12401 39.9974 8.33333 40H31.6667C33.876 39.9974 35.9941 39.1185 37.5563 37.5563C39.1185 35.9941 39.9974 33.876 40 31.6667V8.33333C39.9974 6.12401 39.1185 4.00593 37.5563 2.4437C35.9941 0.88147 33.876 0.00264643 31.6667 0V0ZM8.33333 3.33333H31.6667C32.9927 3.33333 34.2645 3.86012 35.2022 4.7978C36.1399 5.73548 36.6667 7.00725 36.6667 8.33333V31.6667C36.6638 32.4091 36.4929 33.1413 36.1667 33.8083L20.895 18.5367C20.1211 17.7626 19.2024 17.1486 18.1912 16.7297C17.18 16.3107 16.0962 16.0951 15.0017 16.0951C13.9071 16.0951 12.8233 16.3107 11.8121 16.7297C10.8009 17.1486 9.88218 17.7626 9.10833 18.5367L3.33333 24.31V8.33333C3.33333 7.00725 3.86012 5.73548 4.7978 4.7978C5.73548 3.86012 7.00725 3.33333 8.33333 3.33333V3.33333ZM8.33333 36.6667C7.00725 36.6667 5.73548 36.1399 4.7978 35.2022C3.86012 34.2645 3.33333 32.9927 3.33333 31.6667V29.0233L11.4633 20.8933C11.9277 20.4287 12.479 20.0601 13.0858 19.8086C13.6927 19.5572 14.3431 19.4277 15 19.4277C15.6569 19.4277 16.3073 19.5572 16.9142 19.8086C17.521 20.0601 18.0723 20.4287 18.5367 20.8933L33.8083 36.1667C33.1413 36.4929 32.4091 36.6638 31.6667 36.6667H8.33333Z"/>
<path d="M26.6668 17.4994C27.8206 17.4994 28.9484 17.1573 29.9077 16.5163C30.8669 15.8754 31.6146 14.9643 32.0561 13.8984C32.4976 12.8325 32.6132 11.6596 32.3881 10.5281C32.163 9.39652 31.6074 8.35712 30.7916 7.54131C29.9758 6.7255 28.9364 6.16993 27.8049 5.94485C26.6733 5.71977 25.5004 5.83529 24.4345 6.2768C23.3686 6.71831 22.4576 7.46599 21.8166 8.42527C21.1756 9.38456 20.8335 10.5124 20.8335 11.6661C20.8335 13.2132 21.4481 14.6969 22.542 15.7909C23.636 16.8849 25.1197 17.4994 26.6668 17.4994V17.4994ZM26.6668 9.1661C27.1613 9.1661 27.6446 9.31272 28.0558 9.58743C28.4669 9.86213 28.7873 10.2526 28.9765 10.7094C29.1657 11.1662 29.2153 11.6689 29.1188 12.1538C29.0223 12.6388 28.7842 13.0842 28.4346 13.4339C28.085 13.7835 27.6395 14.0216 27.1546 14.1181C26.6696 14.2145 26.1669 14.165 25.7101 13.9758C25.2533 13.7866 24.8629 13.4661 24.5882 13.055C24.3135 12.6439 24.1668 12.1606 24.1668 11.6661C24.1668 11.0031 24.4302 10.3672 24.8991 9.89833C25.3679 9.42949 26.0038 9.1661 26.6668 9.1661V9.1661Z"/>
</g>
</svg>
