<svg viewBox="0 0 20 20" xmlns="http://www.w3.org/2000/svg">
<g clip-path="url(#clip0_183_893)">
<path d="M15 7.55313C15.0001 7.21793 14.9339 6.88602 14.8052 6.57652C14.6765 6.26702 14.4878 5.98605 14.25 5.7498C13.7634 5.2855 13.1167 5.02646 12.4442 5.02646C11.7716 5.02646 11.1249 5.2855 10.6383 5.7498L0.749987 15.6406C0.298669 16.1246 0.0528549 16.7648 0.0643506 17.4264C0.0758463 18.0881 0.343754 18.7194 0.811611 19.1874C1.27947 19.6553 1.91073 19.9234 2.57235 19.935C3.23398 19.9467 3.87428 19.701 4.35832 19.2498L14.25 9.35896C14.4881 9.12247 14.6771 8.8411 14.8058 8.53114C14.9345 8.22117 15.0005 7.88876 15 7.55313V7.55313ZM3.17999 18.0731C3.01153 18.2337 2.78772 18.3233 2.55499 18.3233C2.32225 18.3233 2.09845 18.2337 1.92999 18.0731C1.7645 17.9072 1.67156 17.6825 1.67156 17.4481C1.67156 17.2138 1.7645 16.989 1.92999 16.8231L8.40415 10.3481L9.65832 11.6023L3.17999 18.0731ZM13.0733 8.1798L10.8333 10.4206L9.58332 9.16646L11.8242 6.92646C11.904 6.83521 12.0018 6.76133 12.1114 6.7094C12.221 6.65747 12.3401 6.6286 12.4613 6.62458C12.5825 6.62056 12.7033 6.64147 12.8161 6.68601C12.9289 6.73056 13.0313 6.79779 13.1171 6.88355C13.2028 6.9693 13.2701 7.07176 13.3146 7.18456C13.3592 7.29736 13.3801 7.4181 13.376 7.53931C13.372 7.66053 13.3431 7.77962 13.2912 7.88922C13.2393 7.99881 13.1654 8.09658 13.0742 8.17646L13.0733 8.1798ZM4.05249 2.37896L5.34415 2.01063L5.71249 0.718963C5.77182 0.5117 5.89704 0.329394 6.06919 0.199613C6.24134 0.069832 6.45106 -0.000366211 6.66665 -0.000366211C6.88224 -0.000366211 7.09197 0.069832 7.26412 0.199613C7.43627 0.329394 7.56148 0.5117 7.62082 0.718963L7.98915 2.01063L9.28082 2.37896C9.48808 2.4383 9.67039 2.56351 9.80017 2.73566C9.92995 2.90781 10.0001 3.11754 10.0001 3.33313C10.0001 3.54872 9.92995 3.75845 9.80017 3.9306C9.67039 4.10275 9.48808 4.22796 9.28082 4.2873L7.98915 4.65563L7.62082 5.9473C7.56148 6.15456 7.43627 6.33687 7.26412 6.46665C7.09197 6.59643 6.88224 6.66663 6.66665 6.66663C6.45106 6.66663 6.24134 6.59643 6.06919 6.46665C5.89704 6.33687 5.77182 6.15456 5.71249 5.9473L5.34415 4.65563L4.05249 4.2873C3.84522 4.22796 3.66292 4.10275 3.53314 3.9306C3.40336 3.75845 3.33316 3.54872 3.33316 3.33313C3.33316 3.11754 3.40336 2.90781 3.53314 2.73566C3.66292 2.56351 3.84522 2.4383 4.05249 2.37896V2.37896ZM19.2808 14.2873L17.9892 14.6556L17.6208 15.9473C17.5615 16.1546 17.4363 16.3369 17.2641 16.4666C17.092 16.5964 16.8822 16.6666 16.6667 16.6666C16.4511 16.6666 16.2413 16.5964 16.0692 16.4666C15.897 16.3369 15.7718 16.1546 15.7125 15.9473L15.3442 14.6556L14.0525 14.2873C13.8452 14.228 13.6629 14.1027 13.5331 13.9306C13.4034 13.7584 13.3332 13.5487 13.3332 13.3331C13.3332 13.1175 13.4034 12.9078 13.5331 12.7357C13.6629 12.5635 13.8452 12.4383 14.0525 12.379L15.3442 12.0106L15.7125 10.719C15.7718 10.5117 15.897 10.3294 16.0692 10.1996C16.2413 10.0698 16.4511 9.99963 16.6667 9.99963C16.8822 9.99963 17.092 10.0698 17.2641 10.1996C17.4363 10.3294 17.5615 10.5117 17.6208 10.719L17.9892 12.0106L19.2808 12.379C19.4881 12.4383 19.6704 12.5635 19.8002 12.7357C19.93 12.9078 20.0001 13.1175 20.0001 13.3331C20.0001 13.5487 19.93 13.7584 19.8002 13.9306C19.6704 14.1027 19.4881 14.228 19.2808 14.2873V14.2873ZM14.7958 2.08313L15.9258 1.76063L16.25 0.628963C16.3027 0.448811 16.4125 0.290606 16.5627 0.178057C16.7129 0.065508 16.8956 0.00467553 17.0833 0.00467553C17.271 0.00467553 17.4537 0.065508 17.6039 0.178057C17.7542 0.290606 17.8639 0.448811 17.9167 0.628963L18.2392 1.75896L19.3692 2.08146C19.5493 2.13422 19.7075 2.24394 19.8201 2.39418C19.9326 2.54441 19.9934 2.72708 19.9934 2.9148C19.9934 3.10252 19.9326 3.28518 19.8201 3.43542C19.7075 3.58565 19.5493 3.69537 19.3692 3.74813L18.2392 4.07063L17.9167 5.20313C17.8639 5.38328 17.7542 5.54149 17.6039 5.65404C17.4537 5.76658 17.271 5.82742 17.0833 5.82742C16.8956 5.82742 16.7129 5.76658 16.5627 5.65404C16.4125 5.54149 16.3027 5.38328 16.25 5.20313L15.9275 4.07396L14.7958 3.7498C14.6157 3.69704 14.4575 3.58732 14.3449 3.43708C14.2324 3.28685 14.1715 3.10418 14.1715 2.91646C14.1715 2.72874 14.2324 2.54608 14.3449 2.39584C14.4575 2.24561 14.6157 2.13589 14.7958 2.08313V2.08313Z" fill="white"/>
</g>
<defs>
<clipPath id="clip0_183_893">
<rect width="20" height="20" fill="white"/>
</clipPath>
</defs>
</svg>
