<svg viewBox="0 0 20 20" xmlns="http://www.w3.org/2000/svg">
<g clip-path="url(#clip0_183_894)">
<path d="M19.2893 7.8925L18.6334 7C18.179 6.38161 17.5857 5.8785 16.9014 5.53113C16.2171 5.18377 15.4609 5.00185 14.6934 5H5.31927C4.56762 5.00196 3.82646 5.17647 3.15289 5.51007C2.47933 5.84367 1.89135 6.32747 1.43427 6.92417L0.750099 7.81917C0.194667 8.55192 -0.0664771 9.46598 0.0180332 10.3816C0.102544 11.2971 0.526592 12.148 1.20677 12.7667L7.8651 19.1892C8.44991 19.7107 9.20653 19.9982 9.9901 19.9967C10.7903 19.9951 11.5618 19.6984 12.1568 19.1633L18.7701 12.8025C19.4542 12.1968 19.8868 11.3569 19.9829 10.4483C20.079 9.53963 19.8315 8.62791 19.2893 7.8925V7.8925ZM17.2893 7.98167L17.9451 8.87667C18.011 8.96825 18.069 9.06526 18.1184 9.16667H14.1259C14.0656 8.7676 13.9617 8.37637 13.8159 8L13.2826 6.66667H14.6934C15.1988 6.66762 15.6969 6.78709 16.1477 7.01547C16.5986 7.24385 16.9895 7.57477 17.2893 7.98167ZM9.99177 16.74L7.68427 11.515C7.60081 11.294 7.53777 11.0658 7.49593 10.8333H12.4559C12.421 11.0166 12.3719 11.1968 12.3093 11.3725L9.99177 16.74ZM7.58343 9.16667C7.61828 9.01726 7.66197 8.87006 7.71427 8.72583L8.53427 6.66667H11.4876L12.2684 8.61917C12.337 8.79745 12.3927 8.98042 12.4351 9.16667H7.58343ZM2.75927 7.93417C3.06057 7.54112 3.44805 7.22246 3.89187 7.00272C4.33569 6.78297 4.82402 6.668 5.31927 6.66667H6.73593L6.16677 8.1075C6.02945 8.44937 5.92698 8.80422 5.86093 9.16667H1.87093C1.92809 9.04888 1.99705 8.9372 2.07677 8.83333L2.75927 7.93417ZM2.3426 11.545C2.1252 11.3478 1.95441 11.1047 1.8426 10.8333H5.81927C5.87453 11.2823 5.98279 11.7232 6.14177 12.1467L8.4976 17.48L2.3426 11.545ZM11.4759 17.5117L13.8543 12C13.9923 11.6228 14.0884 11.2316 14.1409 10.8333H18.1668C18.0488 11.1194 17.8686 11.3756 17.6393 11.5833L11.4759 17.5117Z" fill="white"/>
<path d="M9.99984 3.33333C10.2209 3.33333 10.4328 3.24554 10.5891 3.08926C10.7454 2.93298 10.8332 2.72101 10.8332 2.5V0.833333C10.8332 0.61232 10.7454 0.400358 10.5891 0.244078C10.4328 0.0877974 10.2209 0 9.99984 0C9.77883 0 9.56686 0.0877974 9.41058 0.244078C9.2543 0.400358 9.1665 0.61232 9.1665 0.833333V2.5C9.1665 2.72101 9.2543 2.93298 9.41058 3.08926C9.56686 3.24554 9.77883 3.33333 9.99984 3.33333Z" fill="white"/>
<path d="M13.7941 3.24986C13.8925 3.29933 13.9997 3.32881 14.1096 3.33659C14.2194 3.34437 14.3297 3.3303 14.4341 3.2952C14.5385 3.2601 14.6349 3.20466 14.7177 3.13208C14.8005 3.0595 14.8681 2.97123 14.9166 2.87236L15.75 1.20569C15.8488 1.00789 15.8649 0.778935 15.7949 0.569207C15.7249 0.359478 15.5744 0.186153 15.3766 0.0873599C15.1788 -0.0114333 14.9499 -0.0276015 14.7401 0.0424121C14.5304 0.112426 14.3571 0.262886 14.2583 0.460693L13.425 2.12736C13.3752 2.22525 13.3453 2.332 13.3369 2.44149C13.3285 2.55098 13.3419 2.66104 13.3762 2.76535C13.4105 2.86967 13.4651 2.96617 13.5368 3.04932C13.6085 3.13247 13.696 3.20062 13.7941 3.24986V3.24986Z" fill="white"/>
<path d="M5.08742 2.87236C5.18622 3.07072 5.35976 3.22171 5.56988 3.29211C5.78 3.36252 6.00948 3.34657 6.20784 3.24778C6.4062 3.14898 6.55719 2.97544 6.6276 2.76532C6.698 2.5552 6.68205 2.32572 6.58326 2.12736L5.74993 0.460693C5.70101 0.362749 5.63328 0.275399 5.5506 0.20363C5.46793 0.131861 5.37193 0.0770793 5.26808 0.0424121C5.05835 -0.0276015 4.8294 -0.0114333 4.63159 0.0873599C4.43378 0.186153 4.28332 0.359478 4.21331 0.569207C4.1433 0.778935 4.15947 1.00789 4.25826 1.20569L5.08742 2.87236Z" fill="white"/>
</g>
<defs>
<clipPath id="clip0_183_894">
<rect width="20" height="20" fill="white"/>
</clipPath>
</defs>
</svg>
