<svg width="40" height="40" viewBox="0 0 40 40" fill="none" xmlns="http://www.w3.org/2000/svg">
<g clip-path="url(#clip0_42_232)">
<path d="M36.6032 21.4583C36.2818 25.258 34.671 28.8337 32.038 31.592C29.4051 34.3504 25.9082 36.1256 22.1275 36.6232C18.3468 37.1208 14.5097 36.3109 11.2526 34.3278C7.99552 32.3448 5.51435 29.3077 4.2207 25.7206C2.92705 22.1335 2.8987 18.2118 4.14034 14.6064C5.38198 11.0009 7.81898 7.92832 11.047 5.89835C14.2751 3.86838 18.1001 3.00307 21.8876 3.44597C25.6751 3.88887 29.1973 5.61336 31.8699 8.33333H26.6665C26.2245 8.33333 25.8006 8.50893 25.488 8.82149C25.1755 9.13405 24.9999 9.55797 24.9999 10C24.9999 10.442 25.1755 10.866 25.488 11.1785C25.8006 11.4911 26.2245 11.6667 26.6665 11.6667H33.5715C34.3923 11.6662 35.1792 11.34 35.7596 10.7597C36.3399 10.1793 36.6661 9.39238 36.6665 8.57167V1.66667C36.6665 1.22464 36.491 0.800716 36.1784 0.488155C35.8658 0.175595 35.4419 0 34.9999 0V0C34.5579 0 34.1339 0.175595 33.8214 0.488155C33.5088 0.800716 33.3332 1.22464 33.3332 1.66667V5.13C29.981 2.13455 25.7164 0.357473 21.229 0.0861855C16.7416 -0.185102 12.294 1.06526 8.6053 3.63505C4.91664 6.20484 2.20269 9.94379 0.902393 14.2472C-0.397906 18.5506 -0.208525 23.1668 1.43991 27.3492C3.08834 31.5316 6.09943 35.0357 9.98619 37.2947C13.8729 39.5537 18.4081 40.4356 22.8582 39.7976C27.3082 39.1597 31.413 37.0393 34.5086 33.7793C37.6041 30.5193 39.5095 26.3104 39.9165 21.8333C39.9381 21.6012 39.911 21.3672 39.8371 21.1461C39.7632 20.9251 39.644 20.7218 39.4872 20.5494C39.3305 20.3769 39.1395 20.239 38.9264 20.1444C38.7134 20.0498 38.483 20.0006 38.2499 20C37.8433 19.9951 37.4494 20.1417 37.145 20.4113C36.8406 20.6809 36.6475 21.0541 36.6032 21.4583V21.4583Z" fill="black"/>
</g>
<defs>
<clipPath id="clip0_42_232">
<rect width="40" height="40" fill="white"/>
</clipPath>
</defs>
</svg>
