<svg viewBox="0 0 40 40" xmlns="http://www.w3.org/2000/svg">
<g clip-path="url(#clip0_48_230)">
<path d="M1.66667 7.91661H6.22667C6.58439 9.23283 7.36529 10.3948 8.44888 11.2232C9.53247 12.0516 10.8585 12.5004 12.2225 12.5004C13.5865 12.5004 14.9125 12.0516 15.9961 11.2232C17.0797 10.3948 17.8606 9.23283 18.2183 7.91661H38.3333C38.7754 7.91661 39.1993 7.74101 39.5118 7.42845C39.8244 7.11589 40 6.69197 40 6.24994C40 5.80792 39.8244 5.38399 39.5118 5.07143C39.1993 4.75887 38.7754 4.58328 38.3333 4.58328H18.2183C17.8606 3.26706 17.0797 2.10512 15.9961 1.27672C14.9125 0.44833 13.5865 -0.000488281 12.2225 -0.000488281C10.8585 -0.000488281 9.53247 0.44833 8.44888 1.27672C7.36529 2.10512 6.58439 3.26706 6.22667 4.58328H1.66667C1.22464 4.58328 0.800716 4.75887 0.488155 5.07143C0.175595 5.38399 0 5.80792 0 6.24994C0 6.69197 0.175595 7.11589 0.488155 7.42845C0.800716 7.74101 1.22464 7.91661 1.66667 7.91661V7.91661ZM12.2217 3.33328C12.7985 3.33328 13.3624 3.50434 13.8421 3.82482C14.3217 4.14531 14.6956 4.60083 14.9163 5.13378C15.1371 5.66673 15.1948 6.25318 15.0823 6.81896C14.9698 7.38473 14.692 7.90443 14.2841 8.31234C13.8762 8.72024 13.3565 8.99803 12.7907 9.11057C12.2249 9.22311 11.6385 9.16535 11.1055 8.94459C10.5726 8.72384 10.117 8.35 9.79655 7.87036C9.47606 7.39071 9.305 6.82681 9.305 6.24994C9.30588 5.47667 9.61346 4.73531 10.1602 4.18852C10.707 3.64173 11.4484 3.33416 12.2217 3.33328V3.33328Z"/>
<path d="M38.3333 18.3333H33.7733C33.4162 17.0168 32.6356 15.8544 31.5521 15.0257C30.4686 14.197 29.1424 13.7479 27.7783 13.7479C26.4142 13.7479 25.0881 14.197 24.0045 15.0257C22.921 15.8544 22.1405 17.0168 21.7833 18.3333H1.66667C1.22464 18.3333 0.800716 18.5089 0.488155 18.8215C0.175595 19.134 0 19.558 0 20C0 20.442 0.175595 20.8659 0.488155 21.1785C0.800716 21.4911 1.22464 21.6666 1.66667 21.6666H21.7833C22.1405 22.9832 22.921 24.1455 24.0045 24.9743C25.0881 25.803 26.4142 26.252 27.7783 26.252C29.1424 26.252 30.4686 25.803 31.5521 24.9743C32.6356 24.1455 33.4162 22.9832 33.7733 21.6666H38.3333C38.7754 21.6666 39.1993 21.4911 39.5118 21.1785C39.8244 20.8659 40 20.442 40 20C40 19.558 39.8244 19.134 39.5118 18.8215C39.1993 18.5089 38.7754 18.3333 38.3333 18.3333ZM27.7783 22.9166C27.2015 22.9166 26.6376 22.7456 26.1579 22.4251C25.6783 22.1046 25.3044 21.6491 25.0837 21.1161C24.8629 20.5832 24.8052 19.9967 24.9177 19.431C25.0302 18.8652 25.308 18.3455 25.7159 17.9376C26.1238 17.5297 26.6435 17.2519 27.2093 17.1394C27.7751 17.0268 28.3615 17.0846 28.8945 17.3053C29.4274 17.5261 29.883 17.8999 30.2035 18.3796C30.5239 18.8592 30.695 19.4231 30.695 20C30.6941 20.7733 30.3865 21.5146 29.8398 22.0614C29.293 22.6082 28.5516 22.9158 27.7783 22.9166V22.9166Z"/>
<path d="M38.3333 32.0833H18.2183C17.8606 30.7671 17.0797 29.6051 15.9961 28.7767C14.9125 27.9483 13.5865 27.4995 12.2225 27.4995C10.8585 27.4995 9.53247 27.9483 8.44888 28.7767C7.36529 29.6051 6.58439 30.7671 6.22667 32.0833H1.66667C1.22464 32.0833 0.800716 32.2589 0.488155 32.5714C0.175595 32.884 0 33.3079 0 33.7499C0 34.192 0.175595 34.6159 0.488155 34.9285C0.800716 35.241 1.22464 35.4166 1.66667 35.4166H6.22667C6.58439 36.7328 7.36529 37.8948 8.44888 38.7232C9.53247 39.5516 10.8585 40.0004 12.2225 40.0004C13.5865 40.0004 14.9125 39.5516 15.9961 38.7232C17.0797 37.8948 17.8606 36.7328 18.2183 35.4166H38.3333C38.7754 35.4166 39.1993 35.241 39.5118 34.9285C39.8244 34.6159 40 34.192 40 33.7499C40 33.3079 39.8244 32.884 39.5118 32.5714C39.1993 32.2589 38.7754 32.0833 38.3333 32.0833ZM12.2217 36.6666C11.6448 36.6666 11.0809 36.4956 10.6013 36.1751C10.1216 35.8546 9.74777 35.3991 9.52702 34.8661C9.30626 34.3332 9.2485 33.7467 9.36104 33.1809C9.47358 32.6152 9.75137 32.0955 10.1593 31.6876C10.5672 31.2796 11.0869 31.0019 11.6527 30.8893C12.2184 30.7768 12.8049 30.8345 13.3378 31.0553C13.8708 31.2761 14.3263 31.6499 14.6468 32.1295C14.9673 32.6092 15.1383 33.1731 15.1383 33.7499C15.137 34.5231 14.8293 35.2642 14.2826 35.8109C13.7359 36.3576 12.9948 36.6653 12.2217 36.6666V36.6666Z"/>
</g>
</svg>
