<svg width="40" height="40" viewBox="0 0 40 40" xmlns="http://www.w3.org/2000/svg">
<g clip-path="url(#clip0_42_230)">
<path d="M32.4999 39.9999C32.1668 40.0002 31.8413 39.9006 31.5653 39.7141C31.2893 39.5275 31.0755 39.2625 30.9516 38.9533L29.5449 35.4316L26.0183 33.9466C25.7158 33.813 25.4595 33.593 25.2815 33.3142C25.1036 33.0355 25.0121 32.7104 25.0183 32.3797C25.0245 32.0491 25.1283 31.7276 25.3166 31.4558C25.5049 31.1839 25.7693 30.9737 26.0766 30.8516L29.5566 29.5333L30.9516 26.0466C31.0799 25.7419 31.2952 25.4819 31.5707 25.299C31.8461 25.1161 32.1693 25.0186 32.4999 25.0186C32.8305 25.0186 33.1538 25.1161 33.4292 25.299C33.7046 25.4819 33.92 25.7419 34.0483 26.0466L35.4499 29.5466L38.9499 30.9483C39.2553 31.076 39.516 31.2911 39.6994 31.5666C39.8828 31.8421 39.9806 32.1657 39.9806 32.4966C39.9806 32.8276 39.8828 33.1511 39.6994 33.4266C39.516 33.7021 39.2553 33.9172 38.9499 34.0449L35.4499 35.4466L34.0483 38.9466C33.9254 39.2571 33.7121 39.5235 33.436 39.7113C33.16 39.8991 32.8338 39.9997 32.4999 39.9999ZM16.6666 34.9999C15.9466 35.0086 15.2431 34.7839 14.6614 34.3593C14.0798 33.9348 13.6512 33.3333 13.4399 32.6449L10.7499 24.2333L2.31161 21.4099C1.63054 21.1823 1.03947 20.7441 0.623752 20.1585C0.208035 19.573 -0.0108047 18.8705 -0.00115916 18.1525C0.00848635 17.4344 0.246118 16.738 0.677413 16.1639C1.10871 15.5897 1.71134 15.1675 2.39827 14.9583L10.7699 12.4016L13.5899 3.97828C13.7996 3.2864 14.2333 2.68384 14.8229 2.26538C15.4124 1.84691 16.1243 1.63628 16.8466 1.66661C17.5668 1.66759 18.2673 1.90177 18.8432 2.33411C19.4192 2.76645 19.8396 3.37369 20.0416 4.06495L22.5949 12.4233L30.9783 15.1066C31.6545 15.3334 32.2423 15.7669 32.6588 16.3459C33.0753 16.9249 33.2993 17.6201 33.2993 18.3333C33.2993 19.0465 33.0753 19.7417 32.6588 20.3207C32.2423 20.8996 31.6545 21.3331 30.9783 21.5599L22.5799 24.2466L19.8933 32.6449C19.682 33.3333 19.2534 33.9348 18.6718 34.3593C18.0901 34.7839 17.3867 35.0086 16.6666 34.9999ZM16.8533 5.03828L13.6666 14.2733C13.5826 14.5254 13.4395 14.7537 13.2493 14.9392C13.0591 15.1248 12.8273 15.2622 12.5733 15.3399L3.37161 18.1466L12.6066 21.3416C12.8551 21.4244 13.0805 21.5646 13.2647 21.7508C13.4488 21.937 13.5865 22.1639 13.6666 22.4133L16.6166 31.6299L19.6666 22.4133C19.7475 22.1602 19.8877 21.9302 20.0756 21.7423C20.2635 21.5544 20.4935 21.4142 20.7466 21.3333L29.9633 18.3849C29.9751 18.3817 29.9863 18.3766 29.9966 18.3699L20.7466 15.3333C20.4899 15.2512 20.2569 15.1081 20.0677 14.9162C19.8784 14.7243 19.7385 14.4894 19.6599 14.2316L16.8533 5.03828ZM34.1666 11.6666C33.7951 11.6666 33.4342 11.5424 33.1413 11.3139C32.8484 11.0853 32.6402 10.7654 32.5499 10.4049L31.9549 8.02161L29.5666 7.37995C29.2076 7.2835 28.8912 7.06983 28.6676 6.77289C28.444 6.47595 28.3261 6.1128 28.3327 5.74116C28.3392 5.36952 28.4697 5.01072 28.7036 4.7218C28.9374 4.43288 29.2611 4.23042 29.6233 4.14661L31.9566 3.60495L32.5499 1.26161C32.6403 0.901235 32.8484 0.581367 33.1413 0.352812C33.4342 0.124257 33.7951 0.00012207 34.1666 0.00012207C34.5381 0.00012207 34.899 0.124257 35.1919 0.352812C35.4848 0.581367 35.693 0.901235 35.7833 1.26161L36.3733 3.62495L38.7366 4.21661C39.097 4.30693 39.4169 4.51507 39.6454 4.80798C39.874 5.10088 39.9981 5.46176 39.9981 5.83328C39.9981 6.2048 39.874 6.56568 39.6454 6.85858C39.4169 7.15149 39.097 7.35963 38.7366 7.44995L36.3733 8.04161L35.7833 10.4049C35.693 10.7654 35.4849 11.0853 35.192 11.3139C34.899 11.5424 34.5382 11.6666 34.1666 11.6666Z"/>
</g>
</svg>
