<svg viewBox="0 0 40 40" xmlns="http://www.w3.org/2000/svg">
<g clip-path="url(#clip0_50_242)">
<path d="M39.7267 14.6567C39.3858 13.5715 38.7047 12.6249 37.7842 11.9567C36.8636 11.2886 35.7525 10.9345 34.6151 10.9467H27.3334L25.1217 4.05334C24.7739 2.96827 24.0905 2.02169 23.17 1.35011C22.2495 0.678533 21.1395 0.31665 20.0001 0.31665C18.8606 0.31665 17.7506 0.678533 16.8301 1.35011C15.9096 2.02169 15.2262 2.96827 14.8784 4.05334L12.6667 10.9467H5.38508C4.25132 10.9483 3.14706 11.3081 2.23004 11.9748C1.31302 12.6415 0.630145 13.581 0.278946 14.659C-0.0722525 15.737 -0.073807 16.8984 0.274505 17.9773C0.622817 19.0563 1.30318 19.9975 2.21841 20.6667L8.14508 25L5.89174 31.9783C5.5276 33.0607 5.52298 34.2317 5.87859 35.3168C6.2342 36.402 6.93099 37.3431 7.86508 38C8.78316 38.678 9.89573 39.0412 11.037 39.0355C12.1783 39.0298 13.2871 38.6555 14.1984 37.9683L20.0001 33.6983L25.8034 37.9633C26.7198 38.6374 27.8264 39.0036 28.964 39.0091C30.1017 39.0146 31.2117 38.6593 32.1347 37.9942C33.0576 37.3291 33.7459 36.3884 34.1006 35.3075C34.4552 34.2265 34.4579 33.061 34.1084 31.9783L31.8551 25L37.7884 20.6667C38.7141 20.0059 39.4024 19.0647 39.7515 17.9822C40.1006 16.8998 40.0919 15.7338 39.7267 14.6567ZM35.8217 17.975L28.9151 23.0233C28.6314 23.2303 28.4203 23.5215 28.312 23.8556C28.2036 24.1896 28.2035 24.5493 28.3117 24.8833L30.9367 33C31.0696 33.4117 31.0684 33.8549 30.9335 34.2659C30.7986 34.6769 30.5368 35.0345 30.1858 35.2873C29.8348 35.5401 29.4127 35.6751 28.9801 35.6729C28.5475 35.6707 28.1268 35.5314 27.7784 35.275L20.9867 30.275C20.7007 30.0649 20.355 29.9516 20.0001 29.9516C19.6451 29.9516 19.2995 30.0649 19.0134 30.275L12.2217 35.275C11.8735 35.5349 11.4516 35.6771 11.0172 35.681C10.5827 35.685 10.1583 35.5504 9.80546 35.2969C9.45261 35.0434 9.18966 34.6841 9.05474 34.2711C8.91982 33.8582 8.91994 33.4129 9.05508 33L11.6884 24.8833C11.7966 24.5493 11.7965 24.1896 11.6882 23.8556C11.5798 23.5215 11.3688 23.2303 11.0851 23.0233L4.17841 17.975C3.83058 17.7203 3.57213 17.3623 3.43998 16.9519C3.30782 16.5416 3.30872 16.1 3.44255 15.6902C3.57638 15.2804 3.83628 14.9233 4.18515 14.6701C4.53401 14.4168 4.95398 14.2803 5.38508 14.28H13.8851C14.2379 14.28 14.5817 14.168 14.8668 13.9601C15.152 13.7523 15.3638 13.4593 15.4717 13.1233L18.0551 5.07167C18.1877 4.65965 18.4476 4.30032 18.7974 4.04542C19.1472 3.79052 19.5689 3.65318 20.0017 3.65318C20.4346 3.65318 20.8563 3.79052 21.2061 4.04542C21.5559 4.30032 21.8158 4.65965 21.9484 5.07167L24.5317 13.1233C24.6397 13.4593 24.8515 13.7523 25.1367 13.9601C25.4218 14.168 25.7655 14.28 26.1184 14.28H34.6184C35.0495 14.2803 35.4695 14.4168 35.8183 14.6701C36.1672 14.9233 36.4271 15.2804 36.5609 15.6902C36.6948 16.1 36.6957 16.5416 36.5635 16.9519C36.4314 17.3623 36.1729 17.7203 35.8251 17.975H35.8217Z"/>
</g>
</svg>
