<svg viewBox="0 0 40 40" xmlns="http://www.w3.org/2000/svg">
<g clip-path="url(#clip0_42_226)">
<path d="M38.3333 18.3333H31.5333C31.4035 17.4151 31.1634 16.5158 30.8183 15.655L36.6967 12.2483C36.8931 12.1426 37.0664 11.9985 37.2061 11.8246C37.3458 11.6507 37.4492 11.4505 37.5102 11.2359C37.5711 11.0212 37.5883 10.7966 37.5608 10.5752C37.5333 10.3538 37.4616 10.1402 37.35 9.94697C37.2384 9.75379 37.0892 9.58498 36.9111 9.45055C36.7331 9.31612 36.5298 9.21881 36.3135 9.16438C36.0971 9.10995 35.872 9.09951 35.6516 9.13369C35.4311 9.16787 35.2197 9.24596 35.03 9.36333L29.1467 12.775C28.5842 12.0645 27.9417 11.4214 27.2317 10.8583L30.6417 4.97333C30.847 4.59175 30.8957 4.1452 30.7773 3.72835C30.659 3.3115 30.3829 2.95713 30.0077 2.74037C29.6325 2.52361 29.1876 2.46151 28.7674 2.56722C28.3472 2.67294 27.9846 2.93816 27.7567 3.30667L24.345 9.18167C23.4843 8.83621 22.585 8.59613 21.6667 8.46667V1.66667C21.6667 1.22464 21.4911 0.800716 21.1785 0.488155C20.8659 0.175595 20.442 0 20 0C19.558 0 19.134 0.175595 18.8215 0.488155C18.5089 0.800716 18.3333 1.22464 18.3333 1.66667V8.46667C17.415 8.59613 16.5157 8.83621 15.655 9.18167L12.2483 3.30333C12.0204 2.93483 11.6578 2.6696 11.2376 2.56389C10.8174 2.45817 10.3725 2.52028 9.99727 2.73704C9.62206 2.9538 9.34602 3.30817 9.22767 3.72502C9.10933 4.14187 9.15799 4.58842 9.36333 4.97L12.7733 10.8583C12.0633 11.4214 11.4208 12.0645 10.8583 12.775L4.975 9.36333C4.78527 9.24596 4.57391 9.16787 4.35344 9.13369C4.13297 9.09951 3.90789 9.10995 3.69153 9.16438C3.47517 9.21881 3.27194 9.31612 3.09389 9.45055C2.91583 9.58498 2.76658 9.75379 2.65498 9.94697C2.54338 10.1402 2.4717 10.3538 2.44419 10.5752C2.41668 10.7966 2.4339 11.0212 2.49483 11.2359C2.55576 11.4505 2.65916 11.6507 2.7989 11.8246C2.93864 11.9985 3.11187 12.1426 3.30833 12.2483L9.18167 15.655C8.83658 16.5158 8.59651 17.4151 8.46667 18.3333H1.66667C1.22464 18.3333 0.800716 18.5089 0.488155 18.8215C0.175595 19.134 0 19.558 0 20C0 20.442 0.175595 20.8659 0.488155 21.1785C0.800716 21.4911 1.22464 21.6667 1.66667 21.6667H8.46667C8.59651 22.5849 8.83658 23.4842 9.18167 24.345L3.30333 27.7517C3.10687 27.8574 2.93364 28.0015 2.7939 28.1754C2.65416 28.3493 2.55076 28.5495 2.48983 28.7641C2.4289 28.9788 2.41168 29.2034 2.43919 29.4248C2.4667 29.6462 2.53838 29.8598 2.64998 30.053C2.76158 30.2462 2.91083 30.415 3.08889 30.5494C3.26694 30.6839 3.47017 30.7812 3.68653 30.8356C3.90289 30.89 4.12797 30.9005 4.34844 30.8663C4.56891 30.8321 4.78027 30.754 4.97 30.6367L10.8533 27.225C11.4158 27.9355 12.0583 28.5786 12.7683 29.1417L9.36333 35.0267C9.15799 35.4082 9.10933 35.8548 9.22767 36.2716C9.34602 36.6885 9.62206 37.0429 9.99727 37.2596C10.3725 37.4764 10.8174 37.5385 11.2376 37.4328C11.6578 37.3271 12.0204 37.0618 12.2483 36.6933L15.655 30.815C16.5158 31.1609 17.415 31.402 18.3333 31.5333V38.3333C18.3333 38.7754 18.5089 39.1993 18.8215 39.5118C19.134 39.8244 19.558 40 20 40C20.442 40 20.8659 39.8244 21.1785 39.5118C21.4911 39.1993 21.6667 38.7754 21.6667 38.3333V31.5333C22.5849 31.4031 23.4841 31.1631 24.345 30.8183L27.7517 36.6967C27.9796 37.0652 28.3422 37.3304 28.7624 37.4361C29.1826 37.5418 29.6275 37.4797 30.0027 37.263C30.3779 37.0462 30.654 36.6918 30.7723 36.275C30.8907 35.8581 30.842 35.4116 30.6367 35.03L27.2267 29.145C27.9367 28.582 28.5792 27.9388 29.1417 27.2283L35.025 30.64C35.2147 30.7574 35.4261 30.8355 35.6466 30.8696C35.867 30.9038 36.0921 30.8934 36.3085 30.839C36.5248 30.7845 36.7281 30.6872 36.9061 30.5528C37.0842 30.4184 37.2334 30.2495 37.345 30.0564C37.4566 29.8632 37.5283 29.6496 37.5558 29.4282C37.5833 29.2068 37.5661 28.9821 37.5052 28.7675C37.4442 28.5529 37.3408 28.3526 37.2011 28.1787C37.0614 28.0048 36.8881 27.8607 36.6917 27.755L30.8133 24.3483C31.1604 23.4867 31.4021 22.5863 31.5333 21.6667H38.3333C38.7754 21.6667 39.1993 21.4911 39.5118 21.1785C39.8244 20.8659 40 20.442 40 20C40 19.558 39.8244 19.134 39.5118 18.8215C39.1993 18.5089 38.7754 18.3333 38.3333 18.3333ZM20 28.3333C8.98667 27.9833 8.99 12.015 20 11.6667C31.0133 12.0167 31.01 27.985 20 28.3333Z"/>
</g>
</svg>
