<svg viewBox="0 0 26 20" xmlns="http://www.w3.org/2000/svg">
<path fill-rule="evenodd" clip-rule="evenodd" d="M25.011 2.36915C24.0893 2.76951 23.1006 3.04133 22.0632 3.16253C23.1229 2.53811 23.9364 1.54637 24.317 0.36731C23.3244 0.947657 22.2274 1.36639 21.0596 1.59412C20.123 0.613407 18.7909 0 17.3133 0C14.4812 0 12.1827 2.26262 12.1827 5.0505C12.1827 5.4472 12.2275 5.83288 12.3171 6.20019C8.05217 5.99082 4.27235 3.97796 1.74252 0.92195C1.30223 1.66759 1.0485 2.53444 1.0485 3.46005C1.0485 5.21212 1.9552 6.75849 3.33206 7.66207C2.49251 7.63636 1.70148 7.40864 1.00745 7.03031C1.00745 7.05235 1.00745 7.0707 1.00745 7.09274C1.00745 9.53902 2.7761 11.5813 5.12309 12.0441C4.69399 12.1579 4.23878 12.2204 3.77236 12.2204C3.44027 12.2204 3.11938 12.1873 2.80595 12.1286C3.45892 14.1341 5.35443 15.5959 7.59695 15.6363C5.8395 16.9918 3.63057 17.7998 1.22387 17.7998C0.8097 17.7998 0.402981 17.7741 0 17.73C2.26864 19.1625 4.96637 20 7.86561 20C17.302 20 22.4625 12.3049 22.4625 5.63086C22.4625 5.41047 22.4587 5.19375 22.4476 4.97705C23.4512 4.26447 24.3207 3.37558 25.0073 2.36179L25.011 2.36915Z" fill="black"/>
</svg>
